# xmcd CD database file generated by freedbAccess_ocx
#
# Track frame offsets:
#       150
#       7419
#       20114
#       36014
#       42859
#       55703
#       70730
#       87794
#       104330
#       116942
#       125841
#       145667
#       167787
#       186387
#
# Disc length: 4233 seconds
#
# Revision: 0
# Processed by: cddbd v1.5.2PL0 Copyright (c) Steve Scherf et al.
# Submitted via: CDnGo 2.00
#
DISCID=ca10870e
DTITLE=mannes_sangesmannen_ - Eigweggds aufgmachd. Aufgweggds eigmachd
DYEAR=2007
DGENRE=A Cappella
TTITLE0=Eimarsch
TTITLE1=Zeah waggre Schduaggadr
TTITLE2=Eisabah
TTITLE3=Bliamala
TTITLE4=Guadr Mond
TTITLE5=Schnoog
TTITLE6=Turnerweiber
TTITLE7=Urlaub
TTITLE8=Herbschd
TTITLE9=Schimpfwörter
TTITLE10=Nama
TTITLE11=A hoimische Sach
TTITLE12=Goggeler
TTITLE13=Heimatliederzyklus
EXTD=
EXTT0=
EXTT1=
EXTT2=
EXTT3=
EXTT4=
EXTT5=
EXTT6=
EXTT7=
EXTT8=
EXTT9=
EXTT10=
EXTT11=
EXTT12=
EXTT13=
PLAYORDER=
